<svg width="108" height="43" viewBox="0 0 108 43" fill="none" xmlns="http://www.w3.org/2000/svg">
<rect width="108" height="43" rx="20" fill="#D4E8D9"/>
<path d="M26.02 14.8H27.54L33.34 29H31.42L29.74 24.84H23.78L22.12 29H20.2L26.02 14.8ZM29.34 23.44L26.78 16.88L24.14 23.44H29.34ZM34.9352 29V18.56H36.6952V22.88H42.1352V18.56H43.8952V29H42.1352V24.44H36.6952V29H34.9352ZM46.7125 29V18.56H53.1525V20.12H48.4725V29H46.7125ZM54.0352 29.08V27.5C54.4885 27.4867 54.8885 27.32 55.2352 27C55.5818 26.68 55.8552 26.0933 56.0552 25.24C56.2685 24.3867 56.4018 23.1667 56.4552 21.58L56.5752 18.56H63.6752V29H61.9152V20.12H58.1352L58.0952 21.74C58.0285 23.6333 57.8352 25.1133 57.5152 26.18C57.2085 27.2467 56.7618 27.9933 56.1752 28.42C55.6018 28.8467 54.8885 29.0667 54.0352 29.08ZM66.4977 29V18.58H68.2577V26.64L74.0977 18.56H75.6977V29H73.9377V21.1L68.1777 29H66.4977ZM77.7298 29L80.6898 24.8C80.0098 24.6667 79.4632 24.3467 79.0498 23.84C78.6365 23.32 78.4298 22.6267 78.4298 21.76C78.4298 21.1333 78.5765 20.58 78.8698 20.1C79.1632 19.62 79.5698 19.24 80.0898 18.96C80.6232 18.68 81.2432 18.54 81.9498 18.54H86.2298V29H84.4698V25.08H82.4298L79.6698 29H77.7298ZM82.0698 23.78H84.4698V19.92H82.2698C81.6432 19.92 81.1432 20.1 80.7698 20.46C80.3965 20.8067 80.2098 21.2533 80.2098 21.8C80.2098 22.3467 80.3632 22.8133 80.6698 23.2C80.9898 23.5867 81.4565 23.78 82.0698 23.78Z" fill="#2C2D35"/>
</svg>
