<svg width="126" height="43" viewBox="0 0 126 43" fill="none" xmlns="http://www.w3.org/2000/svg">
<rect width="126" height="43" rx="20" fill="#376B44"/>
<path d="M27.3 29V27.7C26.4067 27.66 25.5667 27.4867 24.78 27.18C23.9933 26.8733 23.3 26.4467 22.7 25.9C22.1 25.3533 21.6267 24.7067 21.28 23.96C20.9467 23.2 20.78 22.3667 20.78 21.46C20.78 20.5 20.96 19.6467 21.32 18.9C21.68 18.14 22.16 17.4933 22.76 16.96C23.3733 16.4133 24.0667 15.9933 24.84 15.7C25.6267 15.4067 26.4467 15.24 27.3 15.2V14.14H29.02V15.2C29.8867 15.24 30.7133 15.4133 31.5 15.72C32.2867 16.0267 32.98 16.4533 33.58 17C34.1933 17.5333 34.6733 18.18 35.02 18.94C35.3667 19.6867 35.54 20.5267 35.54 21.46C35.54 22.3933 35.36 23.24 35 24C34.6533 24.7467 34.1733 25.3933 33.56 25.94C32.9467 26.4733 32.2467 26.8933 31.46 27.2C30.6867 27.4933 29.8733 27.66 29.02 27.7V29H27.3ZM27.34 26.22V16.68C26.4733 16.72 25.6733 16.94 24.94 17.34C24.22 17.7267 23.6467 18.2667 23.22 18.96C22.7933 19.6533 22.58 20.4867 22.58 21.46C22.58 22.4333 22.8 23.2733 23.24 23.98C23.6933 24.6733 24.28 25.2133 25 25.6C25.7333 25.9733 26.5133 26.18 27.34 26.22ZM28.98 26.22C29.8467 26.18 30.64 25.9667 31.36 25.58C32.08 25.18 32.6533 24.6333 33.08 23.94C33.52 23.2333 33.74 22.4067 33.74 21.46C33.74 20.4867 33.52 19.6533 33.08 18.96C32.64 18.2533 32.0533 17.7067 31.32 17.32C30.6 16.9333 29.82 16.72 28.98 16.68V26.22ZM43.29 29.2C42.4367 29.2 41.6767 28.9867 41.01 28.56C40.3433 28.1333 39.8167 27.5933 39.43 26.94V33.26H37.67V18.56H39.23V20.52C39.6433 19.88 40.1833 19.3667 40.85 18.98C41.5167 18.58 42.2433 18.38 43.03 18.38C43.75 18.38 44.41 18.5267 45.01 18.82C45.61 19.1133 46.13 19.5133 46.57 20.02C47.01 20.5267 47.35 21.1067 47.59 21.76C47.8433 22.4 47.97 23.0733 47.97 23.78C47.97 24.7667 47.77 25.6733 47.37 26.5C46.9833 27.3267 46.4367 27.9867 45.73 28.48C45.0233 28.96 44.21 29.2 43.29 29.2ZM42.75 27.68C43.4433 27.68 44.0433 27.4933 44.55 27.12C45.0567 26.7467 45.45 26.26 45.73 25.66C46.0233 25.06 46.17 24.4333 46.17 23.78C46.17 23.0733 46.01 22.4267 45.69 21.84C45.3833 21.2533 44.9567 20.7867 44.41 20.44C43.8767 20.08 43.27 19.9 42.59 19.9C42.1767 19.9 41.7367 20.0067 41.27 20.22C40.8167 20.4333 40.4167 20.72 40.07 21.08C39.7367 21.4267 39.5233 21.8133 39.43 22.24V25.22C39.7233 25.9133 40.17 26.5 40.77 26.98C41.3833 27.4467 42.0433 27.68 42.75 27.68ZM49.3109 25.98C49.3109 25.3133 49.4976 24.74 49.8709 24.26C50.2576 23.7667 50.7843 23.3867 51.4509 23.12C52.1176 22.8533 52.8909 22.72 53.7709 22.72C54.2376 22.72 54.7309 22.76 55.2509 22.84C55.7709 22.9067 56.2309 23.0133 56.6309 23.16V22.4C56.6309 21.6 56.3909 20.9733 55.9109 20.52C55.4309 20.0533 54.7509 19.82 53.8709 19.82C53.2976 19.82 52.7443 19.9267 52.2109 20.14C51.6909 20.34 51.1376 20.6333 50.5509 21.02L49.9109 19.78C50.5909 19.3133 51.2709 18.9667 51.9509 18.74C52.6309 18.5 53.3376 18.38 54.0709 18.38C55.4043 18.38 56.4576 18.7533 57.2309 19.5C58.0043 20.2333 58.3909 21.26 58.3909 22.58V27C58.3909 27.4133 58.5776 27.6267 58.9509 27.64V29C58.7776 29.0267 58.6243 29.0467 58.4909 29.06C58.3709 29.0733 58.2709 29.08 58.1909 29.08C57.7776 29.08 57.4643 28.9667 57.2509 28.74C57.0509 28.5133 56.9376 28.2733 56.9109 28.02L56.8709 27.36C56.4176 27.9467 55.8243 28.4 55.0909 28.72C54.3576 29.04 53.6309 29.2 52.9109 29.2C52.2176 29.2 51.5976 29.06 51.0509 28.78C50.5043 28.4867 50.0776 28.1 49.7709 27.62C49.4643 27.1267 49.3109 26.58 49.3109 25.98ZM56.1109 26.72C56.2709 26.5333 56.3976 26.3467 56.4909 26.16C56.5843 25.96 56.6309 25.7933 56.6309 25.66V24.36C55.7776 24.0267 54.8976 23.86 53.9909 23.86C53.0976 23.86 52.3709 24.04 51.8109 24.4C51.2643 24.7467 50.9909 25.2267 50.9909 25.84C50.9909 26.1733 51.0776 26.5 51.2509 26.82C51.4376 27.1267 51.7043 27.38 52.0509 27.58C52.4109 27.78 52.8509 27.88 53.3709 27.88C53.9176 27.88 54.4376 27.7733 54.9309 27.56C55.4243 27.3333 55.8176 27.0533 56.1109 26.72ZM61.1852 29V18.56H62.9452V22.88H68.3852V18.56H70.1452V29H68.3852V24.44H62.9452V29H61.1852ZM81.2025 31.46V29H72.9625V18.56H74.7225V27.46H79.5625V18.56H81.3225V27.46H82.7625V31.46H81.2025ZM84.7008 29V18.58H86.4608V26.64L92.3008 18.56H93.9008V29H92.1408V21.1L86.3808 29H84.7008ZM95.933 29L98.893 24.8C98.213 24.6667 97.6663 24.3467 97.253 23.84C96.8396 23.32 96.633 22.6267 96.633 21.76C96.633 21.1333 96.7796 20.58 97.073 20.1C97.3663 19.62 97.773 19.24 98.293 18.96C98.8263 18.68 99.4463 18.54 100.153 18.54H104.433V29H102.673V25.08H100.633L97.873 29H95.933ZM100.273 23.78H102.673V19.92H100.473C99.8463 19.92 99.3463 20.1 98.973 20.46C98.5996 20.8067 98.413 21.2533 98.413 21.8C98.413 22.3467 98.5663 22.8133 98.873 23.2C99.193 23.5867 99.6596 23.78 100.273 23.78Z" fill="#F4F6F5"/>
</svg>
