<svg width="135" height="43" viewBox="0 0 135 43" fill="none" xmlns="http://www.w3.org/2000/svg">
<rect width="135" height="43" rx="20" fill="#D4E8D9"/>
<path d="M21.7 29V14.8H29.96V16.4H23.5V29H21.7ZM36.5088 29.2C35.4688 29.2 34.5488 28.9533 33.7488 28.46C32.9488 27.9667 32.3221 27.3067 31.8688 26.48C31.4154 25.6533 31.1888 24.7533 31.1888 23.78C31.1888 22.7933 31.4154 21.8933 31.8688 21.08C32.3221 20.2667 32.9488 19.6133 33.7488 19.12C34.5621 18.6267 35.4888 18.38 36.5288 18.38C37.5821 18.38 38.4954 18.6333 39.2688 19.14C40.0554 19.6333 40.6621 20.2867 41.0888 21.1C41.5288 21.9 41.7488 22.7667 41.7488 23.7C41.7488 23.9933 41.7354 24.22 41.7088 24.38H33.0488C33.1021 25.06 33.2888 25.6667 33.6088 26.2C33.9421 26.72 34.3688 27.1333 34.8888 27.44C35.4088 27.7333 35.9688 27.88 36.5688 27.88C37.2088 27.88 37.8088 27.72 38.3688 27.4C38.9421 27.08 39.3354 26.66 39.5488 26.14L41.0688 26.56C40.7354 27.3333 40.1554 27.9667 39.3288 28.46C38.5021 28.9533 37.5621 29.2 36.5088 29.2ZM32.9888 23.16H40.1088C40.0554 22.48 39.8621 21.88 39.5288 21.36C39.1954 20.84 38.7688 20.4333 38.2488 20.14C37.7288 19.8467 37.1554 19.7 36.5288 19.7C35.9154 19.7 35.3488 19.8467 34.8288 20.14C34.3088 20.4333 33.8821 20.84 33.5488 21.36C33.2288 21.88 33.0421 22.48 32.9888 23.16ZM49.3252 29.2C48.4718 29.2 47.7118 28.9867 47.0452 28.56C46.3785 28.1333 45.8518 27.5933 45.4652 26.94V33.26H43.7052V18.56H45.2652V20.52C45.6785 19.88 46.2185 19.3667 46.8852 18.98C47.5518 18.58 48.2785 18.38 49.0652 18.38C49.7852 18.38 50.4452 18.5267 51.0452 18.82C51.6452 19.1133 52.1652 19.5133 52.6052 20.02C53.0452 20.5267 53.3852 21.1067 53.6252 21.76C53.8785 22.4 54.0052 23.0733 54.0052 23.78C54.0052 24.7667 53.8052 25.6733 53.4052 26.5C53.0185 27.3267 52.4718 27.9867 51.7652 28.48C51.0585 28.96 50.2452 29.2 49.3252 29.2ZM48.7852 27.68C49.4785 27.68 50.0785 27.4933 50.5852 27.12C51.0918 26.7467 51.4852 26.26 51.7652 25.66C52.0585 25.06 52.2052 24.4333 52.2052 23.78C52.2052 23.0733 52.0452 22.4267 51.7252 21.84C51.4185 21.2533 50.9918 20.7867 50.4452 20.44C49.9118 20.08 49.3052 19.9 48.6252 19.9C48.2118 19.9 47.7718 20.0067 47.3052 20.22C46.8518 20.4333 46.4518 20.72 46.1052 21.08C45.7718 21.4267 45.5585 21.8133 45.4652 22.24V25.22C45.7585 25.9133 46.2052 26.5 46.8052 26.98C47.4185 27.4467 48.0785 27.68 48.7852 27.68ZM56.1461 29V18.56H57.9661L61.8461 25.4L65.7461 18.56H67.5261V29H65.8461V21.1L62.4061 27.14H61.2861L57.8261 21.1V29H56.1461ZM69.5453 25.98C69.5453 25.3133 69.732 24.74 70.1053 24.26C70.492 23.7667 71.0186 23.3867 71.6853 23.12C72.352 22.8533 73.1253 22.72 74.0053 22.72C74.472 22.72 74.9653 22.76 75.4853 22.84C76.0053 22.9067 76.4653 23.0133 76.8653 23.16V22.4C76.8653 21.6 76.6253 20.9733 76.1453 20.52C75.6653 20.0533 74.9853 19.82 74.1053 19.82C73.532 19.82 72.9786 19.9267 72.4453 20.14C71.9253 20.34 71.372 20.6333 70.7853 21.02L70.1453 19.78C70.8253 19.3133 71.5053 18.9667 72.1853 18.74C72.8653 18.5 73.572 18.38 74.3053 18.38C75.6386 18.38 76.692 18.7533 77.4653 19.5C78.2386 20.2333 78.6253 21.26 78.6253 22.58V27C78.6253 27.4133 78.812 27.6267 79.1853 27.64V29C79.012 29.0267 78.8586 29.0467 78.7253 29.06C78.6053 29.0733 78.5053 29.08 78.4253 29.08C78.012 29.08 77.6986 28.9667 77.4853 28.74C77.2853 28.5133 77.172 28.2733 77.1453 28.02L77.1053 27.36C76.652 27.9467 76.0586 28.4 75.3253 28.72C74.592 29.04 73.8653 29.2 73.1453 29.2C72.452 29.2 71.832 29.06 71.2853 28.78C70.7386 28.4867 70.312 28.1 70.0053 27.62C69.6986 27.1267 69.5453 26.58 69.5453 25.98ZM76.3453 26.72C76.5053 26.5333 76.632 26.3467 76.7253 26.16C76.8186 25.96 76.8653 25.7933 76.8653 25.66V24.36C76.012 24.0267 75.132 23.86 74.2253 23.86C73.332 23.86 72.6053 24.04 72.0453 24.4C71.4986 24.7467 71.2253 25.2267 71.2253 25.84C71.2253 26.1733 71.312 26.5 71.4853 26.82C71.672 27.1267 71.9386 27.38 72.2853 27.58C72.6453 27.78 73.0853 27.88 73.6053 27.88C74.152 27.88 74.672 27.7733 75.1653 27.56C75.6586 27.3333 76.052 27.0533 76.3453 26.72ZM81.4195 29V18.56H83.1795V22.88H88.6195V18.56H90.3795V29H88.6195V24.44H83.1795V29H81.4195ZM93.1969 29V18.58H94.9569V26.64L100.797 18.56H102.397V29H100.637V21.1L94.8769 29H93.1969ZM104.429 29L107.389 24.8C106.709 24.6667 106.162 24.3467 105.749 23.84C105.336 23.32 105.129 22.6267 105.129 21.76C105.129 21.1333 105.276 20.58 105.569 20.1C105.862 19.62 106.269 19.24 106.789 18.96C107.322 18.68 107.942 18.54 108.649 18.54H112.929V29H111.169V25.08H109.129L106.369 29H104.429ZM108.769 23.78H111.169V19.92H108.969C108.342 19.92 107.842 20.1 107.469 20.46C107.096 20.8067 106.909 21.2533 106.909 21.8C106.909 22.3467 107.062 22.8133 107.369 23.2C107.689 23.5867 108.156 23.78 108.769 23.78Z" fill="#2C2D35"/>
</svg>
